Patient4_TMGait_0pt6_02_left_36_GRF.mot
version=1
nRows=65
nColumns=19
inDegrees=no
endheader
time	F1x	F1y	F1z	M1x	M1y	M1z	F2x	F2y	F2z	M2x	M2y	M2z	EC1x	EC1y	EC1z	EC2x	EC2y	EC2z
43.89	-5.1127	-7.6204	-0.15944	2.3372	-4.5064	-14.2134	-28.228	758.9517	-72.5637	299.3165	96.7252	861.1548	-0.0592	0.0182	-0.0073	-0.0462	0.0165	0.9585
43.9026	-3.3943	-3.9302	0.10782	1.1183	-3.2422	-8.1201	-28.211	756.0696	-70.3993	299.4562	92.9988	852.0491	-0.0592	0.0182	-0.0073	-0.0462	0.0165	0.9585
43.9153	-1.9782	-0.76053	0.27057	0.080153	-2.118	-2.8874	-27.1524	754.2499	-68.2167	299.965	88.9465	843.3642	-0.0592	0.0182	-0.0073	-0.0462	0.0165	0.9585
43.9279	-0.94699	1.7181	0.33973	-0.72569	-1.2243	1.1921	-25.1202	754.054	-66.1115	300.9971	84.7694	835.968	-0.0592	0.0182	-0.0073	-0.0462	0.0165	0.9585
43.9406	-0.25526	3.4934	0.35238	-1.2997	-0.58459	4.0781	-22.382	755.7482	-64.2178	302.6276	80.7183	830.3843	-0.0592	0.0182	-0.0073	-0.0462	0.0165	0.9585
43.9532	0.13317	4.6613	0.32341	-1.6711	-0.17099	5.941	-19.2485	759.2331	-62.5891	304.8117	76.9514	826.7004	-0.0592	0.0182	-0.0073	-0.0462	0.0165	0.9585
43.9659	0.30409	5.3145	0.27546	-1.8691	0.05949	6.95	-16.0458	764.01	-61.3012	307.3534	73.6309	824.5599	-0.0592	0.0182	-0.0073	-0.0462	0.0165	0.9585
43.9785	0.31253	5.5448	0.21844	-1.9224	0.15548	7.2972	-12.9866	769.2552	-60.3503	309.9364	70.802	823.2057	-0.0592	0.0182	-0.0073	-0.0462	0.0165	0.9585
43.9911	0.22345	5.3904	0.1712	-1.8446	0.15219	7.0908	-10.1827	774.0172	-59.725	312.1962	68.4629	821.6962	-0.0592	0.0182	-0.0073	-0.0462	0.0165	0.9585
44.0038	0.08187	4.8389	0.14162	-1.6331	0.082545	6.3671	-7.6037	777.3953	-59.34	313.7963	66.4878	819.0864	-0.0592	0.0182	-0.0073	-0.0462	0.0165	0.9585
44.0164	-0.08095	3.8434	0.13428	-1.2702	-0.025893	5.1085	-5.1225	778.6956	-59.1048	314.4806	64.7148	814.6207	-0.0592	0.0182	-0.0073	-0.0462	0.0165	0.9585
44.0291	-0.20939	2.3187	0.14954	-0.72615	-0.14314	3.2307	-2.5912	777.4837	-58.8914	314.0924	62.9492	807.8043	-0.0592	0.0182	-0.0073	-0.0462	0.0165	0.9585
44.0417	-0.28751	0.20948	0.17425	0.019386	-0.23869	0.69319	0.12524	773.5831	-58.6364	312.5738	61.0708	798.4176	-0.0592	0.0182	-0.0073	-0.0462	0.0165	0.9585
44.0544	-0.24895	-2.4871	0.20035	0.9652	-0.2759	-2.5199	3.087	767.0923	-58.288	309.9704	59.0024	786.5552	-0.0592	0.0182	-0.0073	-0.0462	0.0165	0.9585
44.067	-0.05842	-5.5925	0.19537	2.0488	-0.20443	-6.1923	6.2972	758.3328	-57.847	306.412	56.7471	772.5603	-0.0592	0.0182	-0.0073	-0.0462	0.0165	0.9585
44.0796	0.3751	-8.6802	0.1272	3.1174	0.038961	-9.8509	9.7128	747.8245	-57.321	302.1038	54.3359	756.9863	-0.0592	0.0182	-0.0073	-0.0462	0.0165	0.9585
44.0923	1.0961	-10.9349	-0.054687	3.8833	0.52438	-12.5358	13.2589	736.2164	-56.7525	297.3004	51.8423	740.5145	-0.0592	0.0182	-0.0073	-0.0462	0.0165	0.9585
44.1049	2.1674	-11.0872	-0.39183	3.8941	1.3191	-12.7678	16.8381	724.204	-56.1866	292.276	49.3509	723.8656	-0.0592	0.0182	-0.0073	-0.0462	0.0165	0.9585
44.1176	3.5848	-7.3047	-0.92829	2.5014	2.4727	-8.3903	20.3123	712.4343	-55.6779	287.2842	46.9707	707.7214	-0.0592	0.0182	-0.0073	-0.0462	0.0165	0.9585
44.1302	5.2708	2.7926	-1.6792	-1.1341	3.9739	3.4065	23.5534	701.3439	-55.2593	282.4985	44.7871	692.54	-0.0592	0.0182	-0.0073	-0.0462	0.0165	0.9585
44.1429	7.0228	21.9722	-2.6273	-7.986	5.7255	25.9035	26.4376	691.0179	-54.9403	277.9548	42.8599	678.4399	-0.0592	0.0182	-0.0073	-0.0462	0.0165	0.9585
44.1555	8.4297	53.0078	-3.6778	-19.0218	7.4658	62.4216	28.9081	681.0039	-54.6513	273.4885	41.151	664.9979	-0.0592	0.0182	-0.0073	-0.0462	0.0165	0.9585
44.1681	8.8392	97.9381	-4.6276	-34.9411	8.7195	115.3982	30.935	670.2881	-54.2486	268.7188	39.5414	651.2624	-0.0592	0.0182	-0.0073	-0.0462	0.0165	0.9585
44.1808	7.2641	156.931	-5.1384	-55.7674	8.7309	185.0931	32.5217	657.3596	-53.4887	263.0754	37.8065	635.8032	-0.0592	0.0182	-0.0073	-0.0462	0.0165	0.9585
44.1934	2.5372	226.7216	-4.6902	-80.3034	6.4737	267.7001	33.6404	640.4175	-52.1083	255.8748	35.7095	616.9279	-0.0592	0.0182	-0.0073	-0.0462	0.0165	0.9585
44.2061	-5.6993	299.6195	-2.6332	-105.7752	1.0626	354.1805	34.2545	617.7158	-49.8787	246.4532	33.054	592.991	-0.0592	0.0182	-0.0073	-0.0462	0.0165	0.9585
44.2187	-15.5468	364.769	1.8354	-128.3335	-7.6875	431.5497	34.3272	588.0304	-46.7548	234.3475	29.8223	562.8227	-0.0592	0.0182	-0.0073	-0.0462	0.0165	0.9585
44.2314	-24.7457	415.2531	8.3011	-145.5609	-18.4428	491.3336	33.8554	551.176	-42.9203	219.4843	26.1968	526.2104	-0.0592	0.0182	-0.0073	-0.0462	0.0165	0.9585
44.244	-32.2019	451.2255	15.5046	-157.5563	-29.3896	533.4982	32.8811	508.0724	-38.7492	202.1999	22.5108	483.9835	-0.0592	0.0182	-0.0073	-0.0462	0.0165	0.9585
44.2566	-37.3589	476.3681	22.3786	-165.6924	-39.0905	562.3397	31.5399	460.2164	-34.673	183.0579	19.1065	437.5193	-0.0592	0.0182	-0.0073	-0.0462	0.0165	0.9585
44.2693	-40.1902	495.1325	27.9965	-171.602	-46.493	583.1336	29.9488	409.3294	-30.8704	162.7268	16.0996	388.4138	-0.0592	0.0182	-0.0073	-0.0462	0.0165	0.9585
44.2819	-40.9107	510.8325	32.0323	-176.4966	-51.2892	599.8091	28.143	357.1626	-27.3151	141.9026	13.454	338.3013	-0.0592	0.0182	-0.0073	-0.0462	0.0165	0.9585
44.2946	-39.8583	525.6917	34.5095	-181.1615	-53.6417	614.951	26.1028	305.4173	-23.8726	121.2688	11.0594	288.7805	-0.0592	0.0182	-0.0073	-0.0462	0.0165	0.9585
44.3072	-37.4161	541.4021	36.0015	-186.1458	-54.329	630.5879	23.7579	255.6585	-20.4631	101.4538	8.8694	241.3445	-0.0592	0.0182	-0.0073	-0.0462	0.0165	0.9585
44.3199	-33.9988	559.1104	37.0832	-191.7959	-54.1714	648.1096	21.0818	209.2497	-17.0934	83	6.8922	197.27	-0.0592	0.0182	-0.0073	-0.0462	0.0165	0.9585
44.3325	-30.1895	579.233	38.4645	-198.1986	-54.1599	668.0856	18.1252	167.2716	-13.8922	66.3258	5.2124	157.5522	-0.0592	0.0182	-0.0073	-0.0462	0.0165	0.9585
44.3451	-26.5113	601.6669	40.4517	-205.292	-54.8342	690.4465	15.0259	130.4081	-11.0019	51.6932	3.8902	122.7779	-0.0592	0.0182	-0.0073	-0.0462	0.0165	0.9585
44.3578	-23.2737	626.3093	43.1437	-213.0352	-56.4044	715.1229	11.9574	98.9481	-8.5533	39.2068	2.959	93.1658	-0.0592	0.0182	-0.0073	-0.0462	0.0165	0.9585
44.3704	-20.6409	652.9488	46.239	-221.3778	-58.604	741.843	9.086	72.814	-6.5717	28.8315	2.3662	68.5938	-0.0592	0.0182	-0.0073	-0.0462	0.0165	0.9585
44.3831	-18.669	680.9032	49.5499	-230.1074	-61.2277	769.857	6.496	51.6268	-5.019	20.42	2.0318	48.6845	-0.0592	0.0182	-0.0073	-0.0462	0.0165	0.9585
44.3957	-17.3145	708.9903	52.786	-238.842	-63.9532	797.8389	4.2475	34.8568	-3.7947	13.7668	1.8374	32.9251	-0.0592	0.0182	-0.0073	-0.0462	0.0165	0.9585
44.4084	-16.5152	735.7391	55.9172	-247.0837	-66.7143	824.1665	2.3655	21.9459	-2.8126	8.6518	1.6936	20.7935	-0.0592	0.0182	-0.0073	-0.0462	0.0165	0.9585
44.421	-16.1656	759.7687	58.8167	-254.3712	-69.3425	847.3113	0.87775	12.3583	-1.9823	4.863	1.5108	11.7816	-0.0592	0.0182	-0.0073	-0.0462	0.0165	0.9585
44.4336	-16.0928	780.0761	61.4964	-260.366	-71.7851	866.199	-0.18275	5.6219	-1.2744	2.2098	1.2593	5.4482	-0.0592	0.0182	-0.0073	-0.0462	0.0165	0.9585
44.4463	-16.1568	796.1051	63.8026	-264.8862	-73.8358	880.2557	-0.83704	1.2873	-0.68933	0.50918	0.95715	1.3749	-0.0592	0.0182	-0.0073	-0.0462	0.0165	0.9585
44.4589	-16.2292	807.7248	65.6977	-267.8887	-75.403	889.3758	-1.1794	-1.1632	-0.25939	-0.44596	0.67832	-0.91928	-0.0592	0.0182	-0.0073	-0.0462	0.0165	0.9585
44.4716	-16.2056	815.2059	67.0446	-269.4657	-76.3117	893.8874	-1.3061	-2.2424	0.032499	-0.86308	0.44644	-1.9056	-0.0592	0.0182	-0.0073	-0.0462	0.0165	0.9585
44.4842	-15.9766	819.0542	67.8561	-269.7829	-76.5379	894.3653	-1.2907	-2.4331	0.20415	-0.93297	0.27424	-2.0375	-0.0592	0.0182	-0.0073	-0.0462	0.0165	0.9585
44.4969	-15.4781	819.9151	68.1026	-269.0543	-76.0382	891.51	-1.2061	-2.1076	0.2919	-0.80237	0.15322	-1.6685	-0.0592	0.0182	-0.0073	-0.0462	0.0165	0.9585
44.5095	-14.6483	818.4229	67.9108	-267.4873	-74.9292	886.0103	-1.0873	-1.5479	0.31886	-0.58103	0.078366	-1.0784	-0.0592	0.0182	-0.0073	-0.0462	0.0165	0.9585
44.5221	-13.4508	815.1122	67.3502	-265.2614	-73.2873	878.4485	-0.97127	-0.93246	0.31475	-0.33969	0.037224	-0.4344	-0.0592	0.0182	-0.0073	-0.0462	0.0165	0.9585
44.5348	-11.9036	810.349	66.579	-262.5049	-71.2916	869.2429	-0.87028	-0.3727	0.29583	-0.12123	0.02544	0.14952	-0.0592	0.0182	-0.0073	-0.0462	0.0165	0.9585
44.5474	-10.0451	804.362	65.6609	-259.3125	-69.0389	858.6642	-0.79402	0.099342	0.27585	0.060359	0.032406	0.6355	-0.0592	0.0182	-0.0073	-0.0462	0.0165	0.9585
44.5601	-7.9377	797.2965	64.6878	-255.7594	-66.6599	846.908	-0.73615	0.47512	0.259	0.20276	0.047495	1.01	-0.0592	0.0182	-0.0073	-0.0462	0.0165	0.9585
44.5727	-5.6221	789.2891	63.6638	-251.9267	-64.1917	834.1175	-0.69488	0.76046	0.24678	0.31066	0.064392	1.2864	-0.0592	0.0182	-0.0073	-0.0462	0.0165	0.9585
44.5854	-3.1481	780.4766	62.6292	-247.8922	-61.7004	820.4339	-0.66825	0.97404	0.23549	0.39244	0.084452	1.4858	-0.0592	0.0182	-0.0073	-0.0462	0.0165	0.9585
44.598	-0.5237	770.9733	61.5686	-243.726	-59.1857	805.9685	-0.64902	1.1186	0.21765	0.45159	0.10987	1.6075	-0.0592	0.0182	-0.0073	-0.0462	0.0165	0.9585
44.6106	2.2103	760.8368	60.5126	-239.466	-56.6903	790.7992	-0.64324	1.1881	0.19091	0.48566	0.14341	1.6524	-0.0592	0.0182	-0.0073	-0.0462	0.0165	0.9585
44.6233	5.0221	750.0847	59.4501	-235.1302	-54.2144	774.9596	-0.63876	1.1634	0.14713	0.48591	0.19086	1.598	-0.0592	0.0182	-0.0073	-0.0462	0.0165	0.9585
44.6359	7.8769	738.8053	58.4014	-230.7482	-51.7854	758.5755	-0.64117	1.0074	0.082398	0.43322	0.2589	1.4059	-0.0592	0.0182	-0.0073	-0.0462	0.0165	0.9585
44.6486	10.767	727.2473	57.3553	-226.3952	-49.3961	741.9232	-0.64716	0.65131	-0.0012868	0.2955	0.34831	0.99042	-0.0592	0.0182	-0.0073	-0.0462	0.0165	0.9585
44.6612	13.6753	715.8179	56.3345	-222.19	-47.0699	725.4313	-0.64997	0.029955	-0.105	0.039928	0.45899	0.27217	-0.0592	0.0182	-0.0073	-0.0462	0.0165	0.9585
44.6739	16.6253	705.0773	55.3395	-218.2975	-44.7995	709.6601	-0.63136	-0.9382	-0.22186	-0.36877	0.58027	-0.85296	-0.0592	0.0182	-0.0073	-0.0462	0.0165	0.9585
44.6865	19.6505	695.6603	54.3954	-214.9052	-42.5949	695.2356	-0.5894	-2.3132	-0.3483	-0.95751	0.70722	-2.4603	-0.0592	0.0182	-0.0073	-0.0462	0.0165	0.9585
44.6991	22.8041	688.2121	53.5195	-212.2056	-40.4495	682.768	-0.51746	-4.0958	-0.46579	-1.7276	0.81608	-4.5588	-0.0592	0.0182	-0.0073	-0.0462	0.0165	0.9585
